<?xml version="1.0" encoding="utf-8" standalone="no"?>
<!DOCTYPE svg PUBLIC "-//W3C//DTD SVG 1.1//EN"
  "http://www.w3.org/Graphics/SVG/1.1/DTD/svg11.dtd">
<!-- Created with matplotlib (http://matplotlib.org/) -->
<svg height="345pt" version="1.1" viewBox="0 0 460 345" width="460pt" xmlns="http://www.w3.org/2000/svg" xmlns:xlink="http://www.w3.org/1999/xlink">
 <defs>
  <style type="text/css">
*{stroke-linecap:butt;stroke-linejoin:round;}
  </style>
 </defs>
 <g id="figure_1">
  <g id="patch_1">
   <path d="M 0 345.6 
L 460.8 345.6 
L 460.8 0 
L 0 0 
z
" style="fill:none;opacity:0;"/>
  </g>
  <g id="axes_1">
   <g id="patch_2">
    <path d="M 74.801407 263.541311 
L 450 263.541311 
L 450 10.8 
L 74.801407 10.8 
z
" style="fill:#ffffff;"/>
   </g>
   <g id="matplotlib.axis_1">
    <g id="xtick_1">
     <g id="line2d_1">
      <path clip-path="url(#p0feb46cb20)" d="M 74.801407 263.541311 
L 74.801407 10.8 
" style="fill:none;stroke:#cccccc;stroke-linecap:round;stroke-width:1.3;"/>
     </g>
     <g id="line2d_2"/>
     <g id="text_1">
      <!-- 2015-10-12 -->
      <defs>
       <path d="M 50.34375 8.453125 
L 50.34375 0 
L 3.03125 0 
Q 2.9375 3.171875 4.046875 6.109375 
Q 5.859375 10.9375 9.828125 15.625 
Q 13.8125 20.3125 21.34375 26.46875 
Q 33.015625 36.03125 37.109375 41.625 
Q 41.21875 47.21875 41.21875 52.203125 
Q 41.21875 57.421875 37.46875 61 
Q 33.734375 64.59375 27.734375 64.59375 
Q 21.390625 64.59375 17.578125 60.78125 
Q 13.765625 56.984375 13.71875 50.25 
L 4.6875 51.171875 
Q 5.609375 61.28125 11.65625 66.578125 
Q 17.71875 71.875 27.9375 71.875 
Q 38.234375 71.875 44.234375 66.15625 
Q 50.25 60.453125 50.25 52 
Q 50.25 47.703125 48.484375 43.546875 
Q 46.734375 39.40625 42.65625 34.8125 
Q 38.578125 30.21875 29.109375 22.21875 
Q 21.1875 15.578125 18.9375 13.203125 
Q 16.703125 10.84375 15.234375 8.453125 
z
" id="ArialMT-32"/>
       <path d="M 4.15625 35.296875 
Q 4.15625 48 6.765625 55.734375 
Q 9.375 63.484375 14.515625 67.671875 
Q 19.671875 71.875 27.484375 71.875 
Q 33.25 71.875 37.59375 69.546875 
Q 41.9375 67.234375 44.765625 62.859375 
Q 47.609375 58.5 49.21875 52.21875 
Q 50.828125 45.953125 50.828125 35.296875 
Q 50.828125 22.703125 48.234375 14.96875 
Q 45.65625 7.234375 40.5 3 
Q 35.359375 -1.21875 27.484375 -1.21875 
Q 17.140625 -1.21875 11.234375 6.203125 
Q 4.15625 15.140625 4.15625 35.296875 
z
M 13.1875 35.296875 
Q 13.1875 17.671875 17.3125 11.828125 
Q 21.4375 6 27.484375 6 
Q 33.546875 6 37.671875 11.859375 
Q 41.796875 17.71875 41.796875 35.296875 
Q 41.796875 52.984375 37.671875 58.78125 
Q 33.546875 64.59375 27.390625 64.59375 
Q 21.34375 64.59375 17.71875 59.46875 
Q 13.1875 52.9375 13.1875 35.296875 
z
" id="ArialMT-30"/>
       <path d="M 37.25 0 
L 28.46875 0 
L 28.46875 56 
Q 25.296875 52.984375 20.140625 49.953125 
Q 14.984375 46.921875 10.890625 45.40625 
L 10.890625 53.90625 
Q 18.265625 57.375 23.78125 62.296875 
Q 29.296875 67.234375 31.59375 71.875 
L 37.25 71.875 
z
" id="ArialMT-31"/>
       <path d="M 4.15625 18.75 
L 13.375 19.53125 
Q 14.40625 12.796875 18.140625 9.390625 
Q 21.875 6 27.15625 6 
Q 33.5 6 37.890625 10.78125 
Q 42.28125 15.578125 42.28125 23.484375 
Q 42.28125 31 38.0625 35.34375 
Q 33.84375 39.703125 27 39.703125 
Q 22.75 39.703125 19.328125 37.765625 
Q 15.921875 35.84375 13.96875 32.765625 
L 5.71875 33.84375 
L 12.640625 70.609375 
L 48.25 70.609375 
L 48.25 62.203125 
L 19.671875 62.203125 
L 15.828125 42.96875 
Q 22.265625 47.46875 29.34375 47.46875 
Q 38.71875 47.46875 45.15625 40.96875 
Q 51.609375 34.46875 51.609375 24.265625 
Q 51.609375 14.546875 45.953125 7.46875 
Q 39.0625 -1.21875 27.15625 -1.21875 
Q 17.390625 -1.21875 11.203125 4.25 
Q 5.03125 9.71875 4.15625 18.75 
z
" id="ArialMT-35"/>
       <path d="M 3.171875 21.484375 
L 3.171875 30.328125 
L 30.171875 30.328125 
L 30.171875 21.484375 
z
" id="ArialMT-2d"/>
      </defs>
      <g style="fill:#262626;" transform="translate(15.926691 313.945281)rotate(-30)scale(0.13 -0.13)">
       <use xlink:href="#ArialMT-32"/>
       <use x="55.615234" xlink:href="#ArialMT-30"/>
       <use x="111.230469" xlink:href="#ArialMT-31"/>
       <use x="166.845703" xlink:href="#ArialMT-35"/>
       <use x="222.460938" xlink:href="#ArialMT-2d"/>
       <use x="255.761719" xlink:href="#ArialMT-31"/>
       <use x="311.376953" xlink:href="#ArialMT-30"/>
       <use x="366.992188" xlink:href="#ArialMT-2d"/>
       <use x="400.292969" xlink:href="#ArialMT-31"/>
       <use x="455.908203" xlink:href="#ArialMT-32"/>
      </g>
     </g>
    </g>
    <g id="xtick_2">
     <g id="line2d_3">
      <path clip-path="url(#p0feb46cb20)" d="M 132.524268 263.541311 
L 132.524268 10.8 
" style="fill:none;stroke:#cccccc;stroke-linecap:round;stroke-width:1.3;"/>
     </g>
     <g id="line2d_4"/>
     <g id="text_2">
      <!-- 2016-01-20 -->
      <defs>
       <path d="M 49.75 54.046875 
L 41.015625 53.375 
Q 39.84375 58.546875 37.703125 60.890625 
Q 34.125 64.65625 28.90625 64.65625 
Q 24.703125 64.65625 21.53125 62.3125 
Q 17.390625 59.28125 14.984375 53.46875 
Q 12.59375 47.65625 12.5 36.921875 
Q 15.671875 41.75 20.265625 44.09375 
Q 24.859375 46.4375 29.890625 46.4375 
Q 38.671875 46.4375 44.84375 39.96875 
Q 51.03125 33.5 51.03125 23.25 
Q 51.03125 16.5 48.125 10.71875 
Q 45.21875 4.9375 40.140625 1.859375 
Q 35.0625 -1.21875 28.609375 -1.21875 
Q 17.625 -1.21875 10.6875 6.859375 
Q 3.765625 14.9375 3.765625 33.5 
Q 3.765625 54.25 11.421875 63.671875 
Q 18.109375 71.875 29.4375 71.875 
Q 37.890625 71.875 43.28125 67.140625 
Q 48.6875 62.40625 49.75 54.046875 
z
M 13.875 23.1875 
Q 13.875 18.65625 15.796875 14.5 
Q 17.71875 10.359375 21.1875 8.171875 
Q 24.65625 6 28.46875 6 
Q 34.03125 6 38.03125 10.484375 
Q 42.046875 14.984375 42.046875 22.703125 
Q 42.046875 30.125 38.078125 34.390625 
Q 34.125 38.671875 28.125 38.671875 
Q 22.171875 38.671875 18.015625 34.390625 
Q 13.875 30.125 13.875 23.1875 
z
" id="ArialMT-36"/>
      </defs>
      <g style="fill:#262626;" transform="translate(73.649552 313.945281)rotate(-30)scale(0.13 -0.13)">
       <use xlink:href="#ArialMT-32"/>
       <use x="55.615234" xlink:href="#ArialMT-30"/>
       <use x="111.230469" xlink:href="#ArialMT-31"/>
       <use x="166.845703" xlink:href="#ArialMT-36"/>
       <use x="222.460938" xlink:href="#ArialMT-2d"/>
       <use x="255.761719" xlink:href="#ArialMT-30"/>
       <use x="311.376953" xlink:href="#ArialMT-31"/>
       <use x="366.992188" xlink:href="#ArialMT-2d"/>
       <use x="400.292969" xlink:href="#ArialMT-32"/>
       <use x="455.908203" xlink:href="#ArialMT-30"/>
      </g>
     </g>
    </g>
    <g id="xtick_3">
     <g id="line2d_5">
      <path clip-path="url(#p0feb46cb20)" d="M 190.247128 263.541311 
L 190.247128 10.8 
" style="fill:none;stroke:#cccccc;stroke-linecap:round;stroke-width:1.3;"/>
     </g>
     <g id="line2d_6"/>
     <g id="text_3">
      <!-- 2016-04-29 -->
      <defs>
       <path d="M 32.328125 0 
L 32.328125 17.140625 
L 1.265625 17.140625 
L 1.265625 25.203125 
L 33.9375 71.578125 
L 41.109375 71.578125 
L 41.109375 25.203125 
L 50.78125 25.203125 
L 50.78125 17.140625 
L 41.109375 17.140625 
L 41.109375 0 
z
M 32.328125 25.203125 
L 32.328125 57.46875 
L 9.90625 25.203125 
z
" id="ArialMT-34"/>
       <path d="M 5.46875 16.546875 
L 13.921875 17.328125 
Q 14.984375 11.375 18.015625 8.6875 
Q 21.046875 6 25.78125 6 
Q 29.828125 6 32.875 7.859375 
Q 35.9375 9.71875 37.890625 12.8125 
Q 39.84375 15.921875 41.15625 21.1875 
Q 42.484375 26.46875 42.484375 31.9375 
Q 42.484375 32.515625 42.4375 33.6875 
Q 39.796875 29.5 35.234375 26.875 
Q 30.671875 24.265625 25.34375 24.265625 
Q 16.453125 24.265625 10.296875 30.703125 
Q 4.15625 37.15625 4.15625 47.703125 
Q 4.15625 58.59375 10.578125 65.234375 
Q 17 71.875 26.65625 71.875 
Q 33.640625 71.875 39.421875 68.109375 
Q 45.21875 64.359375 48.21875 57.390625 
Q 51.21875 50.4375 51.21875 37.25 
Q 51.21875 23.53125 48.234375 15.40625 
Q 45.265625 7.28125 39.375 3.03125 
Q 33.5 -1.21875 25.59375 -1.21875 
Q 17.1875 -1.21875 11.859375 3.4375 
Q 6.546875 8.109375 5.46875 16.546875 
z
M 41.453125 48.140625 
Q 41.453125 55.71875 37.421875 60.15625 
Q 33.40625 64.59375 27.734375 64.59375 
Q 21.875 64.59375 17.53125 59.8125 
Q 13.1875 55.03125 13.1875 47.40625 
Q 13.1875 40.578125 17.3125 36.296875 
Q 21.4375 32.03125 27.484375 32.03125 
Q 33.59375 32.03125 37.515625 36.296875 
Q 41.453125 40.578125 41.453125 48.140625 
z
" id="ArialMT-39"/>
      </defs>
      <g style="fill:#262626;" transform="translate(131.372412 313.945281)rotate(-30)scale(0.13 -0.13)">
       <use xlink:href="#ArialMT-32"/>
       <use x="55.615234" xlink:href="#ArialMT-30"/>
       <use x="111.230469" xlink:href="#ArialMT-31"/>
       <use x="166.845703" xlink:href="#ArialMT-36"/>
       <use x="222.460938" xlink:href="#ArialMT-2d"/>
       <use x="255.761719" xlink:href="#ArialMT-30"/>
       <use x="311.376953" xlink:href="#ArialMT-34"/>
       <use x="366.992188" xlink:href="#ArialMT-2d"/>
       <use x="400.292969" xlink:href="#ArialMT-32"/>
       <use x="455.908203" xlink:href="#ArialMT-39"/>
      </g>
     </g>
    </g>
    <g id="xtick_4">
     <g id="line2d_7">
      <path clip-path="url(#p0feb46cb20)" d="M 247.969989 263.541311 
L 247.969989 10.8 
" style="fill:none;stroke:#cccccc;stroke-linecap:round;stroke-width:1.3;"/>
     </g>
     <g id="line2d_8"/>
     <g id="text_4">
      <!-- 2016-08-07 -->
      <defs>
       <path d="M 17.671875 38.8125 
Q 12.203125 40.828125 9.5625 44.53125 
Q 6.9375 48.25 6.9375 53.421875 
Q 6.9375 61.234375 12.546875 66.546875 
Q 18.171875 71.875 27.484375 71.875 
Q 36.859375 71.875 42.578125 66.421875 
Q 48.296875 60.984375 48.296875 53.171875 
Q 48.296875 48.1875 45.671875 44.5 
Q 43.0625 40.828125 37.75 38.8125 
Q 44.34375 36.671875 47.78125 31.875 
Q 51.21875 27.09375 51.21875 20.453125 
Q 51.21875 11.28125 44.71875 5.03125 
Q 38.234375 -1.21875 27.640625 -1.21875 
Q 17.046875 -1.21875 10.546875 5.046875 
Q 4.046875 11.328125 4.046875 20.703125 
Q 4.046875 27.6875 7.59375 32.390625 
Q 11.140625 37.109375 17.671875 38.8125 
z
M 15.921875 53.71875 
Q 15.921875 48.640625 19.1875 45.40625 
Q 22.46875 42.1875 27.6875 42.1875 
Q 32.765625 42.1875 36.015625 45.375 
Q 39.265625 48.578125 39.265625 53.21875 
Q 39.265625 58.0625 35.90625 61.359375 
Q 32.5625 64.65625 27.59375 64.65625 
Q 22.5625 64.65625 19.234375 61.421875 
Q 15.921875 58.203125 15.921875 53.71875 
z
M 13.09375 20.65625 
Q 13.09375 16.890625 14.875 13.375 
Q 16.65625 9.859375 20.171875 7.921875 
Q 23.6875 6 27.734375 6 
Q 34.03125 6 38.125 10.046875 
Q 42.234375 14.109375 42.234375 20.359375 
Q 42.234375 26.703125 38.015625 30.859375 
Q 33.796875 35.015625 27.4375 35.015625 
Q 21.234375 35.015625 17.15625 30.90625 
Q 13.09375 26.8125 13.09375 20.65625 
z
" id="ArialMT-38"/>
       <path d="M 4.734375 62.203125 
L 4.734375 70.65625 
L 51.078125 70.65625 
L 51.078125 63.8125 
Q 44.234375 56.546875 37.515625 44.484375 
Q 30.8125 32.421875 27.15625 19.671875 
Q 24.515625 10.6875 23.78125 0 
L 14.75 0 
Q 14.890625 8.453125 18.0625 20.40625 
Q 21.234375 32.375 27.171875 43.484375 
Q 33.109375 54.59375 39.796875 62.203125 
z
" id="ArialMT-37"/>
      </defs>
      <g style="fill:#262626;" transform="translate(189.095273 313.945281)rotate(-30)scale(0.13 -0.13)">
       <use xlink:href="#ArialMT-32"/>
       <use x="55.615234" xlink:href="#ArialMT-30"/>
       <use x="111.230469" xlink:href="#ArialMT-31"/>
       <use x="166.845703" xlink:href="#ArialMT-36"/>
       <use x="222.460938" xlink:href="#ArialMT-2d"/>
       <use x="255.761719" xlink:href="#ArialMT-30"/>
       <use x="311.376953" xlink:href="#ArialMT-38"/>
       <use x="366.992188" xlink:href="#ArialMT-2d"/>
       <use x="400.292969" xlink:href="#ArialMT-30"/>
       <use x="455.908203" xlink:href="#ArialMT-37"/>
      </g>
     </g>
    </g>
    <g id="xtick_5">
     <g id="line2d_9">
      <path clip-path="url(#p0feb46cb20)" d="M 305.692849 263.541311 
L 305.692849 10.8 
" style="fill:none;stroke:#cccccc;stroke-linecap:round;stroke-width:1.3;"/>
     </g>
     <g id="line2d_10"/>
     <g id="text_5">
      <!-- 2016-11-15 -->
      <g style="fill:#262626;" transform="translate(246.830447 313.938172)rotate(-30)scale(0.13 -0.13)">
       <use xlink:href="#ArialMT-32"/>
       <use x="55.615234" xlink:href="#ArialMT-30"/>
       <use x="111.230469" xlink:href="#ArialMT-31"/>
       <use x="166.845703" xlink:href="#ArialMT-36"/>
       <use x="222.460938" xlink:href="#ArialMT-2d"/>
       <use x="255.761719" xlink:href="#ArialMT-31"/>
       <use x="311.267578" xlink:href="#ArialMT-31"/>
       <use x="366.882812" xlink:href="#ArialMT-2d"/>
       <use x="400.183594" xlink:href="#ArialMT-31"/>
       <use x="455.798828" xlink:href="#ArialMT-35"/>
      </g>
     </g>
    </g>
    <g id="xtick_6">
     <g id="line2d_11">
      <path clip-path="url(#p0feb46cb20)" d="M 363.415709 263.541311 
L 363.415709 10.8 
" style="fill:none;stroke:#cccccc;stroke-linecap:round;stroke-width:1.3;"/>
     </g>
     <g id="line2d_12"/>
     <g id="text_6">
      <!-- 2017-02-23 -->
      <defs>
       <path d="M 4.203125 18.890625 
L 12.984375 20.0625 
Q 14.5 12.59375 18.140625 9.296875 
Q 21.78125 6 27 6 
Q 33.203125 6 37.46875 10.296875 
Q 41.75 14.59375 41.75 20.953125 
Q 41.75 27 37.796875 30.921875 
Q 33.84375 34.859375 27.734375 34.859375 
Q 25.25 34.859375 21.53125 33.890625 
L 22.515625 41.609375 
Q 23.390625 41.5 23.921875 41.5 
Q 29.546875 41.5 34.03125 44.421875 
Q 38.53125 47.359375 38.53125 53.46875 
Q 38.53125 58.296875 35.25 61.46875 
Q 31.984375 64.65625 26.8125 64.65625 
Q 21.6875 64.65625 18.265625 61.421875 
Q 14.84375 58.203125 13.875 51.765625 
L 5.078125 53.328125 
Q 6.6875 62.15625 12.390625 67.015625 
Q 18.109375 71.875 26.609375 71.875 
Q 32.46875 71.875 37.390625 69.359375 
Q 42.328125 66.84375 44.9375 62.5 
Q 47.5625 58.15625 47.5625 53.265625 
Q 47.5625 48.640625 45.0625 44.828125 
Q 42.578125 41.015625 37.703125 38.765625 
Q 44.046875 37.3125 47.5625 32.6875 
Q 51.078125 28.078125 51.078125 21.140625 
Q 51.078125 11.765625 44.234375 5.25 
Q 37.40625 -1.265625 26.953125 -1.265625 
Q 17.53125 -1.265625 11.296875 4.34375 
Q 5.078125 9.96875 4.203125 18.890625 
z
" id="ArialMT-33"/>
      </defs>
      <g style="fill:#262626;" transform="translate(304.540993 313.945281)rotate(-30)scale(0.13 -0.13)">
       <use xlink:href="#ArialMT-32"/>
       <use x="55.615234" xlink:href="#ArialMT-30"/>
       <use x="111.230469" xlink:href="#ArialMT-31"/>
       <use x="166.845703" xlink:href="#ArialMT-37"/>
       <use x="222.460938" xlink:href="#ArialMT-2d"/>
       <use x="255.761719" xlink:href="#ArialMT-30"/>
       <use x="311.376953" xlink:href="#ArialMT-32"/>
       <use x="366.992188" xlink:href="#ArialMT-2d"/>
       <use x="400.292969" xlink:href="#ArialMT-32"/>
       <use x="455.908203" xlink:href="#ArialMT-33"/>
      </g>
     </g>
    </g>
    <g id="xtick_7">
     <g id="line2d_13">
      <path clip-path="url(#p0feb46cb20)" d="M 421.13857 263.541311 
L 421.13857 10.8 
" style="fill:none;stroke:#cccccc;stroke-linecap:round;stroke-width:1.3;"/>
     </g>
     <g id="line2d_14"/>
     <g id="text_7">
      <!-- 2017-06-03 -->
      <g style="fill:#262626;" transform="translate(362.263854 313.945281)rotate(-30)scale(0.13 -0.13)">
       <use xlink:href="#ArialMT-32"/>
       <use x="55.615234" xlink:href="#ArialMT-30"/>
       <use x="111.230469" xlink:href="#ArialMT-31"/>
       <use x="166.845703" xlink:href="#ArialMT-37"/>
       <use x="222.460938" xlink:href="#ArialMT-2d"/>
       <use x="255.761719" xlink:href="#ArialMT-30"/>
       <use x="311.376953" xlink:href="#ArialMT-36"/>
       <use x="366.992188" xlink:href="#ArialMT-2d"/>
       <use x="400.292969" xlink:href="#ArialMT-30"/>
       <use x="455.908203" xlink:href="#ArialMT-33"/>
      </g>
     </g>
    </g>
    <g id="text_8">
     <!-- Day -->
     <defs>
      <path d="M 7.71875 0 
L 7.71875 71.578125 
L 32.375 71.578125 
Q 40.71875 71.578125 45.125 70.5625 
Q 51.265625 69.140625 55.609375 65.4375 
Q 61.28125 60.640625 64.078125 53.1875 
Q 66.890625 45.75 66.890625 36.1875 
Q 66.890625 28.03125 64.984375 21.734375 
Q 63.09375 15.4375 60.109375 11.296875 
Q 57.125 7.171875 53.578125 4.796875 
Q 50.046875 2.4375 45.046875 1.21875 
Q 40.046875 0 33.546875 0 
z
M 17.1875 8.453125 
L 32.46875 8.453125 
Q 39.546875 8.453125 43.578125 9.765625 
Q 47.609375 11.078125 50 13.484375 
Q 53.375 16.84375 55.25 22.53125 
Q 57.125 28.21875 57.125 36.328125 
Q 57.125 47.5625 53.4375 53.59375 
Q 49.75 59.625 44.484375 61.671875 
Q 40.671875 63.140625 32.234375 63.140625 
L 17.1875 63.140625 
z
" id="ArialMT-44"/>
      <path d="M 40.4375 6.390625 
Q 35.546875 2.25 31.03125 0.53125 
Q 26.515625 -1.171875 21.34375 -1.171875 
Q 12.796875 -1.171875 8.203125 3 
Q 3.609375 7.171875 3.609375 13.671875 
Q 3.609375 17.484375 5.34375 20.625 
Q 7.078125 23.78125 9.890625 25.6875 
Q 12.703125 27.59375 16.21875 28.5625 
Q 18.796875 29.25 24.03125 29.890625 
Q 34.671875 31.15625 39.703125 32.90625 
Q 39.75 34.71875 39.75 35.203125 
Q 39.75 40.578125 37.25 42.78125 
Q 33.890625 45.75 27.25 45.75 
Q 21.046875 45.75 18.09375 43.578125 
Q 15.140625 41.40625 13.71875 35.890625 
L 5.125 37.0625 
Q 6.296875 42.578125 8.984375 45.96875 
Q 11.671875 49.359375 16.75 51.1875 
Q 21.828125 53.03125 28.515625 53.03125 
Q 35.15625 53.03125 39.296875 51.46875 
Q 43.453125 49.90625 45.40625 47.53125 
Q 47.359375 45.171875 48.140625 41.546875 
Q 48.578125 39.3125 48.578125 33.453125 
L 48.578125 21.734375 
Q 48.578125 9.46875 49.140625 6.21875 
Q 49.703125 2.984375 51.375 0 
L 42.1875 0 
Q 40.828125 2.734375 40.4375 6.390625 
z
M 39.703125 26.03125 
Q 34.90625 24.078125 25.34375 22.703125 
Q 19.921875 21.921875 17.671875 20.9375 
Q 15.4375 19.96875 14.203125 18.09375 
Q 12.984375 16.21875 12.984375 13.921875 
Q 12.984375 10.40625 15.640625 8.0625 
Q 18.3125 5.71875 23.4375 5.71875 
Q 28.515625 5.71875 32.46875 7.9375 
Q 36.421875 10.15625 38.28125 14.015625 
Q 39.703125 17 39.703125 22.796875 
z
" id="ArialMT-61"/>
      <path d="M 6.203125 -19.96875 
L 5.21875 -11.71875 
Q 8.109375 -12.5 10.25 -12.5 
Q 13.1875 -12.5 14.9375 -11.515625 
Q 16.703125 -10.546875 17.828125 -8.796875 
Q 18.65625 -7.46875 20.515625 -2.25 
Q 20.75 -1.515625 21.296875 -0.09375 
L 1.609375 51.859375 
L 11.078125 51.859375 
L 21.875 21.828125 
Q 23.96875 16.109375 25.640625 9.8125 
Q 27.15625 15.875 29.25 21.625 
L 40.328125 51.859375 
L 49.125 51.859375 
L 29.390625 -0.875 
Q 26.21875 -9.421875 24.46875 -12.640625 
Q 22.125 -17 19.09375 -19.015625 
Q 16.0625 -21.046875 11.859375 -21.046875 
Q 9.328125 -21.046875 6.203125 -19.96875 
z
" id="ArialMT-79"/>
     </defs>
     <g style="fill:#262626;" transform="translate(249.685993 330.418546)scale(0.143 -0.143)">
      <use xlink:href="#ArialMT-44"/>
      <use x="72.216797" xlink:href="#ArialMT-61"/>
      <use x="127.832031" xlink:href="#ArialMT-79"/>
     </g>
    </g>
   </g>
   <g id="matplotlib.axis_2">
    <g id="ytick_1">
     <g id="line2d_15">
      <path clip-path="url(#p0feb46cb20)" d="M 74.801407 252.053069 
L 450 252.053069 
" style="fill:none;stroke:#cccccc;stroke-linecap:round;stroke-width:1.3;"/>
     </g>
     <g id="line2d_16"/>
     <g id="text_9">
      <!-- 0.0 -->
      <defs>
       <path d="M 9.078125 0 
L 9.078125 10.015625 
L 19.09375 10.015625 
L 19.09375 0 
z
" id="ArialMT-2e"/>
      </defs>
      <g style="fill:#262626;" transform="translate(47.631407 256.705647)scale(0.13 -0.13)">
       <use xlink:href="#ArialMT-30"/>
       <use x="55.615234" xlink:href="#ArialMT-2e"/>
       <use x="83.398438" xlink:href="#ArialMT-30"/>
      </g>
     </g>
    </g>
    <g id="ytick_2">
     <g id="line2d_17">
      <path clip-path="url(#p0feb46cb20)" d="M 74.801407 206.392675 
L 450 206.392675 
" style="fill:none;stroke:#cccccc;stroke-linecap:round;stroke-width:1.3;"/>
     </g>
     <g id="line2d_18"/>
     <g id="text_10">
      <!-- 0.2 -->
      <g style="fill:#262626;" transform="translate(47.631407 211.045253)scale(0.13 -0.13)">
       <use xlink:href="#ArialMT-30"/>
       <use x="55.615234" xlink:href="#ArialMT-2e"/>
       <use x="83.398438" xlink:href="#ArialMT-32"/>
      </g>
     </g>
    </g>
    <g id="ytick_3">
     <g id="line2d_19">
      <path clip-path="url(#p0feb46cb20)" d="M 74.801407 160.73228 
L 450 160.73228 
" style="fill:none;stroke:#cccccc;stroke-linecap:round;stroke-width:1.3;"/>
     </g>
     <g id="line2d_20"/>
     <g id="text_11">
      <!-- 0.4 -->
      <g style="fill:#262626;" transform="translate(47.631407 165.384858)scale(0.13 -0.13)">
       <use xlink:href="#ArialMT-30"/>
       <use x="55.615234" xlink:href="#ArialMT-2e"/>
       <use x="83.398438" xlink:href="#ArialMT-34"/>
      </g>
     </g>
    </g>
    <g id="ytick_4">
     <g id="line2d_21">
      <path clip-path="url(#p0feb46cb20)" d="M 74.801407 115.071886 
L 450 115.071886 
" style="fill:none;stroke:#cccccc;stroke-linecap:round;stroke-width:1.3;"/>
     </g>
     <g id="line2d_22"/>
     <g id="text_12">
      <!-- 0.6 -->
      <g style="fill:#262626;" transform="translate(47.631407 119.724464)scale(0.13 -0.13)">
       <use xlink:href="#ArialMT-30"/>
       <use x="55.615234" xlink:href="#ArialMT-2e"/>
       <use x="83.398438" xlink:href="#ArialMT-36"/>
      </g>
     </g>
    </g>
    <g id="ytick_5">
     <g id="line2d_23">
      <path clip-path="url(#p0feb46cb20)" d="M 74.801407 69.411491 
L 450 69.411491 
" style="fill:none;stroke:#cccccc;stroke-linecap:round;stroke-width:1.3;"/>
     </g>
     <g id="line2d_24"/>
     <g id="text_13">
      <!-- 0.8 -->
      <g style="fill:#262626;" transform="translate(47.631407 74.064069)scale(0.13 -0.13)">
       <use xlink:href="#ArialMT-30"/>
       <use x="55.615234" xlink:href="#ArialMT-2e"/>
       <use x="83.398438" xlink:href="#ArialMT-38"/>
      </g>
     </g>
    </g>
    <g id="ytick_6">
     <g id="line2d_25">
      <path clip-path="url(#p0feb46cb20)" d="M 74.801407 23.751096 
L 450 23.751096 
" style="fill:none;stroke:#cccccc;stroke-linecap:round;stroke-width:1.3;"/>
     </g>
     <g id="line2d_26"/>
     <g id="text_14">
      <!-- 1.0 -->
      <g style="fill:#262626;" transform="translate(47.631407 28.403675)scale(0.13 -0.13)">
       <use xlink:href="#ArialMT-31"/>
       <use x="55.615234" xlink:href="#ArialMT-2e"/>
       <use x="83.398438" xlink:href="#ArialMT-30"/>
      </g>
     </g>
    </g>
   </g>
   <g id="line2d_27">
    <path clip-path="url(#p0feb46cb20)" d="M 76.533093 27.703477 
L 77.110322 28.762603 
L 77.68755 32.167759 
L 78.264779 28.509879 
L 78.842008 31.781819 
L 79.419236 26.015355 
L 79.996465 25.354734 
L 80.573693 42.439106 
L 81.150922 26.807994 
L 81.728151 26.327141 
L 82.305379 30.092818 
L 82.882608 37.961411 
L 83.459836 27.636426 
L 84.037065 26.845462 
L 84.614294 28.033526 
L 85.191522 54.386956 
L 85.768751 28.356583 
L 86.345979 40.413149 
L 86.923208 27.684196 
L 87.500437 28.264834 
L 88.077665 29.276025 
L 88.654894 31.326211 
L 89.232122 30.28047 
L 89.809351 26.83223 
L 90.38658 26.870183 
L 90.963808 31.921616 
L 91.541037 26.517461 
L 92.118265 27.381394 
L 92.695494 25.495287 
L 93.272723 26.054847 
L 93.849951 28.56737 
L 94.42718 33.68903 
L 95.004408 30.543257 
L 95.581637 33.319325 
L 96.736094 27.013514 
L 97.313323 27.22744 
L 97.890551 27.306795 
L 98.46778 28.005972 
L 99.045009 26.996639 
L 99.622237 29.017146 
L 100.199466 26.950131 
L 100.776695 27.795532 
L 101.353923 86.232143 
L 101.931152 28.234947 
L 102.50838 28.714999 
L 103.085609 31.396221 
L 103.662838 26.229893 
L 104.240066 38.814357 
L 104.817295 28.007582 
L 105.394523 27.925846 
L 105.971752 25.992855 
L 106.548981 28.69809 
L 107.126209 26.996214 
L 107.703438 37.520341 
L 108.280666 45.883521 
L 108.857895 32.286082 
L 109.435124 58.558585 
L 110.012352 27.860241 
L 110.589581 88.31608 
L 111.166809 26.989947 
L 111.744038 30.081093 
L 112.321267 51.518483 
L 112.898495 28.188712 
L 113.475724 29.242752 
L 114.052952 33.125762 
L 115.20741 28.782828 
L 115.784638 31.907598 
L 116.361867 28.234868 
L 116.939095 28.73638 
L 117.516324 28.179141 
L 118.093553 30.810174 
L 118.670781 28.554756 
L 119.24801 30.280506 
L 119.825238 32.696895 
L 120.402467 24.736689 
L 120.979696 27.733815 
L 121.556924 26.169523 
L 122.134153 31.113149 
L 122.711381 31.480132 
L 123.28861 28.718601 
L 123.865839 27.826775 
L 124.443067 28.058782 
L 125.020296 32.849835 
L 125.597524 24.016822 
M 127.32921 29.78356 
L 127.906439 33.287271 
L 128.483668 31.228371 
L 129.060896 27.241579 
L 129.638125 29.844476 
L 130.215353 29.162087 
L 130.792582 26.750976 
L 131.369811 36.708012 
L 131.947039 29.543724 
L 132.524268 46.94517 
L 133.101496 32.96184 
L 133.678725 29.553864 
L 134.255954 29.742878 
L 134.833182 27.702289 
L 135.410411 38.05853 
L 135.987639 25.773162 
L 136.564868 25.642847 
L 137.142097 28.649264 
L 137.719325 39.254457 
L 138.296554 44.406537 
L 138.873782 31.668351 
L 139.451011 29.654785 
L 140.02824 30.633304 
L 140.605468 30.515518 
L 141.182697 28.900868 
L 141.759925 27.674336 
L 142.337154 27.048952 
L 142.914383 32.779511 
L 143.491611 28.718546 
L 144.06884 33.355184 
L 144.646068 30.537505 
L 145.223297 32.748853 
L 145.800526 30.226514 
L 146.377754 34.540356 
L 146.954983 30.891516 
L 147.532211 30.401048 
L 148.686669 33.439634 
L 149.263897 30.961968 
L 150.418354 35.120356 
L 150.995583 26.405218 
L 151.572812 31.492788 
L 152.15004 38.355112 
L 152.727269 36.394746 
L 153.304497 29.73607 
L 153.881726 30.867761 
L 154.458955 32.647176 
L 155.036183 32.826198 
L 155.613412 31.087741 
L 156.190641 32.682726 
L 156.767869 47.471072 
L 157.345098 31.333443 
L 157.922326 30.606162 
L 158.499555 66.043692 
L 159.076784 27.627195 
L 159.654012 28.551783 
L 160.231241 37.417995 
L 160.808469 29.003204 
L 161.385698 30.086645 
L 161.962927 28.160577 
L 162.540155 34.833656 
L 163.117384 29.237419 
L 163.694612 33.782331 
L 164.271841 30.975759 
L 164.84907 26.64185 
L 165.426298 34.649987 
L 166.003527 29.224601 
L 166.580755 29.470393 
L 167.157984 28.299482 
L 167.735213 30.814198 
L 168.312441 32.309647 
L 168.88967 29.678824 
L 169.466898 32.740909 
L 170.044127 28.062258 
L 170.621356 28.843581 
L 171.775813 33.00555 
L 172.353041 35.691336 
L 172.93027 40.463835 
L 173.507499 32.097857 
L 174.084727 34.803156 
L 174.661956 32.833688 
L 175.239184 40.2459 
L 175.816413 30.74791 
L 176.393642 32.536131 
L 176.97087 50.504667 
L 177.548099 117.596818 
L 178.125327 29.16145 
L 178.702556 28.341649 
L 179.279785 30.258519 
L 179.857013 35.701459 
L 180.434242 46.369888 
L 181.01147 32.822055 
L 181.588699 29.440812 
L 182.743156 32.930443 
L 183.320385 37.168723 
L 183.897613 33.901069 
L 184.474842 28.526135 
L 185.052071 37.432616 
L 185.629299 32.636065 
L 186.206528 29.867112 
L 186.783757 32.032745 
L 187.360985 36.995312 
L 188.515442 30.896782 
L 189.092671 32.168492 
L 189.6699 28.210395 
L 190.247128 29.908267 
L 190.824357 28.289583 
L 191.401585 37.252698 
L 191.978814 31.763551 
L 192.556043 31.015923 
L 193.133271 33.47763 
L 193.7105 31.460261 
L 194.287728 32.69458 
L 194.864957 28.534374 
L 195.442186 29.998566 
L 196.019414 29.880389 
L 196.596643 39.187273 
L 197.173871 62.791621 
L 197.7511 27.54123 
L 198.328329 27.795805 
L 198.905557 27.247731 
L 199.482786 28.125205 
L 200.060014 27.561715 
L 200.637243 27.663884 
L 201.214472 29.738021 
L 201.7917 26.955145 
L 202.368929 28.165359 
L 202.946157 27.804555 
L 203.523386 27.931419 
L 204.100615 31.903185 
L 204.677843 29.901959 
L 205.255072 24.593016 
L 205.8323 40.687812 
L 206.409529 27.085621 
L 206.986758 45.770774 
L 207.563986 28.642157 
L 208.141215 33.359538 
L 208.718443 32.905984 
L 209.295672 29.923043 
L 209.872901 28.20505 
M 217.376873 28.378746 
L 217.954101 29.244678 
L 218.53133 27.545807 
L 219.108558 27.862991 
L 219.685787 26.545318 
L 220.263016 26.464169 
L 220.840244 32.057124 
L 221.417473 30.966595 
L 221.994701 33.48761 
L 222.57193 33.425445 
L 223.149159 28.841284 
L 223.726387 31.907058 
L 224.303616 29.33085 
L 224.880844 29.211737 
L 225.458073 24.905142 
L 226.035302 30.944999 
L 226.61253 26.249494 
L 227.189759 28.464947 
L 227.766987 26.422331 
L 228.344216 26.728681 
L 228.921445 30.522457 
L 229.498673 26.762438 
L 230.075902 28.468376 
L 230.65313 37.564227 
L 231.230359 25.938251 
L 231.807588 27.248024 
L 232.384816 142.235096 
L 232.962045 35.449202 
L 233.539273 30.776693 
L 234.116502 38.927548 
L 234.693731 31.459568 
L 235.270959 30.316282 
L 235.848188 30.249868 
L 236.425416 26.298397 
L 237.002645 25.782669 
L 237.579874 34.147747 
L 238.157102 28.608094 
L 238.734331 31.082912 
L 239.311559 26.469589 
L 239.888788 25.471352 
L 240.466017 30.074373 
L 241.043245 27.363221 
L 241.620474 26.495551 
L 242.197703 30.156604 
L 242.774931 30.949377 
M 287.221534 23.777365 
L 287.798762 23.971891 
L 288.375991 33.923314 
L 288.953219 22.288241 
L 289.530448 31.022883 
L 290.107677 28.634535 
L 290.684905 33.210421 
L 291.262134 26.734767 
L 291.839362 27.788771 
L 292.416591 34.149471 
L 292.99382 27.82873 
L 293.571048 32.878972 
L 294.148277 31.038366 
L 294.725505 33.52586 
L 295.302734 252.053069 
L 295.879963 27.684508 
L 296.457191 33.059476 
L 297.03442 35.177403 
L 297.611649 30.616016 
L 298.188877 81.740447 
L 298.766106 28.156822 
L 299.343334 31.353431 
L 299.920563 32.678236 
L 300.497792 37.413562 
L 301.07502 28.299345 
L 301.652249 28.506477 
L 302.229477 28.844412 
L 302.806706 28.934274 
L 303.383935 28.461853 
L 303.961163 29.944671 
L 305.11562 34.059551 
L 305.692849 28.180847 
L 306.270078 31.806179 
L 306.847306 30.672435 
L 307.424535 32.434177 
L 308.001763 32.333674 
L 308.578992 29.418706 
L 309.156221 27.851777 
L 309.733449 29.820125 
L 310.310678 30.929407 
L 310.887906 29.407159 
L 311.465135 28.585817 
L 312.042364 31.827344 
L 312.619592 32.116585 
L 313.196821 28.783923 
L 313.774049 31.762076 
L 314.351278 29.437408 
L 314.928507 29.312987 
L 315.505735 29.552761 
L 316.082964 26.97174 
L 316.660192 29.907377 
L 317.81465 28.219686 
L 318.391878 24.102677 
L 318.969107 25.496312 
L 319.546335 32.581551 
L 320.123564 27.298761 
L 320.700793 30.140748 
L 321.278021 31.362152 
L 321.85525 30.44471 
L 322.432478 43.56192 
L 323.009707 30.782102 
L 323.586936 30.433006 
L 324.164164 26.231178 
L 324.741393 37.898832 
L 325.318622 37.749278 
L 326.473079 27.508578 
L 327.050307 30.47249 
L 327.627536 32.040417 
L 328.204765 30.271581 
L 328.781993 33.156723 
L 329.359222 32.86584 
L 329.93645 33.916542 
L 330.513679 30.974503 
L 331.090908 29.058207 
L 331.668136 29.753639 
L 332.245365 30.742901 
L 332.822593 28.523993 
L 333.399822 29.454583 
L 333.977051 28.484633 
L 334.554279 32.027445 
L 335.131508 30.75548 
L 335.708736 26.992408 
L 336.285965 29.383662 
L 336.863194 27.552437 
L 338.017651 34.226928 
L 338.594879 26.967541 
L 339.172108 26.685979 
L 339.749337 29.405592 
L 340.326565 27.311693 
L 340.903794 29.729735 
L 341.481022 28.007445 
L 342.058251 33.165694 
L 342.63548 25.719653 
L 343.212708 37.467702 
L 343.789937 34.461647 
L 344.367165 26.704118 
L 344.944394 37.681612 
L 345.521623 35.53446 
L 346.098851 26.318692 
L 346.67608 37.139873 
L 347.253308 28.857249 
L 347.830537 31.687449 
L 348.407766 45.604346 
L 348.984994 104.746818 
L 349.562223 42.449676 
L 350.139451 54.196594 
L 350.71668 48.971526 
L 351.293909 252.053069 
L 365.724624 252.053069 
M 370.919681 29.303785 
L 371.49691 37.452586 
L 372.074138 45.578576 
L 372.651367 36.804618 
L 373.228596 33.628145 
L 373.805824 34.349029 
L 374.383053 39.954681 
L 374.960281 30.643862 
L 375.53751 31.421157 
L 376.691967 28.180307 
L 377.269196 30.334543 
L 377.846424 33.58974 
L 378.423653 31.072863 
L 379.000882 35.964843 
L 379.57811 29.03758 
L 380.155339 31.286161 
L 380.732568 29.490558 
L 381.309796 31.164797 
L 381.887025 28.733391 
L 382.464253 27.983464 
L 383.041482 28.875023 
L 383.618711 29.507099 
L 384.195939 26.361334 
L 384.773168 30.206759 
L 385.350396 28.800782 
L 385.927625 31.308855 
L 386.504854 30.307876 
L 387.082082 30.550273 
L 387.659311 35.549406 
L 388.236539 27.513428 
L 388.813768 28.620007 
L 389.390997 34.685529 
L 389.968225 33.785715 
L 390.545454 28.02196 
L 391.122682 27.066817 
L 391.699911 29.961057 
L 392.27714 34.27953 
L 392.854368 32.711721 
L 393.431597 27.945248 
L 394.008825 33.450671 
L 394.586054 35.097612 
L 395.163283 25.376997 
L 395.740511 30.256036 
L 396.31774 42.928794 
L 396.894968 37.014606 
L 397.472197 46.909173 
L 398.049426 34.965304 
L 398.626654 33.228266 
L 399.203883 35.933898 
L 399.781111 33.851395 
L 400.35834 28.427373 
L 401.512797 29.661195 
L 402.090026 28.57288 
L 402.667254 28.817475 
L 403.244483 252.053069 
L 412.480141 252.053069 
L 413.057369 31.002868 
L 413.634598 28.660857 
L 414.211827 29.436885 
L 414.789055 49.268491 
L 415.366284 143.640953 
L 415.943512 140.966765 
L 416.520741 30.176027 
L 417.09797 31.832905 
L 417.675198 26.40366 
L 418.252427 31.578574 
L 418.829655 30.13136 
L 419.406884 31.778856 
L 419.984113 38.638473 
L 420.561341 33.752438 
L 421.13857 34.460784 
L 421.715798 26.125926 
L 422.293027 33.100885 
L 422.870256 29.215629 
L 423.447484 35.922984 
L 424.024713 38.195245 
L 424.601941 32.10156 
L 425.17917 29.112597 
L 425.756399 37.555811 
L 426.333627 30.284537 
L 426.910856 27.126276 
L 427.488084 31.085476 
L 428.065313 27.136046 
L 428.642542 29.17345 
L 429.21977 28.384073 
L 429.796999 26.187668 
L 430.374227 31.743988 
L 430.951456 28.616709 
L 431.528685 33.552268 
L 432.105913 31.345504 
L 432.683142 27.94366 
L 433.26037 33.472772 
L 433.837599 30.645848 
L 434.414828 28.428917 
L 434.992056 30.913372 
L 435.569285 31.915087 
L 436.146514 29.353803 
L 436.723742 29.151614 
L 437.300971 29.373333 
L 437.878199 27.651037 
L 438.455428 33.194541 
L 439.032657 26.076849 
L 439.609885 27.785967 
L 440.187114 29.948266 
L 440.764342 35.320323 
L 440.764342 35.320323 
" style="fill:none;stroke:#4c72b0;stroke-linecap:round;stroke-width:2.275;"/>
   </g>
   <g id="patch_3">
    <path d="M 74.801407 263.541311 
L 74.801407 10.8 
" style="fill:none;stroke:#cccccc;stroke-linecap:square;stroke-linejoin:miter;"/>
   </g>
   <g id="patch_4">
    <path d="M 450 263.541311 
L 450 10.8 
" style="fill:none;stroke:#cccccc;stroke-linecap:square;stroke-linejoin:miter;"/>
   </g>
   <g id="patch_5">
    <path d="M 74.801407 263.541311 
L 450 263.541311 
" style="fill:none;stroke:#cccccc;stroke-linecap:square;stroke-linejoin:miter;"/>
   </g>
   <g id="patch_6">
    <path d="M 74.801407 10.8 
L 450 10.8 
" style="fill:none;stroke:#cccccc;stroke-linecap:square;stroke-linejoin:miter;"/>
   </g>
   <g id="legend_1">
    <g id="line2d_28">
     <path d="M 86.501407 244.707561 
L 112.501407 244.707561 
" style="fill:none;stroke:#4c72b0;stroke-linecap:round;stroke-width:2.275;"/>
    </g>
    <g id="line2d_29"/>
    <g id="text_15">
     <!-- POT Recorded/Delivered -->
     <defs>
      <path d="M 7.71875 0 
L 7.71875 71.578125 
L 34.71875 71.578125 
Q 41.84375 71.578125 45.609375 70.90625 
Q 50.875 70.015625 54.4375 67.546875 
Q 58.015625 65.09375 60.1875 60.640625 
Q 62.359375 56.203125 62.359375 50.875 
Q 62.359375 41.75 56.546875 35.421875 
Q 50.734375 29.109375 35.546875 29.109375 
L 17.1875 29.109375 
L 17.1875 0 
z
M 17.1875 37.546875 
L 35.6875 37.546875 
Q 44.875 37.546875 48.734375 40.96875 
Q 52.59375 44.390625 52.59375 50.59375 
Q 52.59375 55.078125 50.3125 58.265625 
Q 48.046875 61.46875 44.34375 62.5 
Q 41.9375 63.140625 35.5 63.140625 
L 17.1875 63.140625 
z
" id="ArialMT-50"/>
      <path d="M 4.828125 34.859375 
Q 4.828125 52.6875 14.390625 62.765625 
Q 23.96875 72.859375 39.109375 72.859375 
Q 49.03125 72.859375 56.984375 68.109375 
Q 64.9375 63.375 69.109375 54.90625 
Q 73.296875 46.4375 73.296875 35.6875 
Q 73.296875 24.8125 68.890625 16.21875 
Q 64.5 7.625 56.4375 3.203125 
Q 48.390625 -1.21875 39.0625 -1.21875 
Q 28.953125 -1.21875 20.984375 3.65625 
Q 13.03125 8.546875 8.921875 16.984375 
Q 4.828125 25.4375 4.828125 34.859375 
z
M 14.59375 34.71875 
Q 14.59375 21.78125 21.546875 14.328125 
Q 28.515625 6.890625 39.015625 6.890625 
Q 49.703125 6.890625 56.609375 14.40625 
Q 63.53125 21.921875 63.53125 35.75 
Q 63.53125 44.484375 60.578125 51 
Q 57.625 57.515625 51.921875 61.109375 
Q 46.234375 64.703125 39.15625 64.703125 
Q 29.109375 64.703125 21.84375 57.78125 
Q 14.59375 50.875 14.59375 34.71875 
z
" id="ArialMT-4f"/>
      <path d="M 25.921875 0 
L 25.921875 63.140625 
L 2.34375 63.140625 
L 2.34375 71.578125 
L 59.078125 71.578125 
L 59.078125 63.140625 
L 35.40625 63.140625 
L 35.40625 0 
z
" id="ArialMT-54"/>
      <path id="ArialMT-20"/>
      <path d="M 7.859375 0 
L 7.859375 71.578125 
L 39.59375 71.578125 
Q 49.171875 71.578125 54.140625 69.640625 
Q 59.125 67.71875 62.109375 62.828125 
Q 65.09375 57.953125 65.09375 52.046875 
Q 65.09375 44.4375 60.15625 39.203125 
Q 55.21875 33.984375 44.921875 32.5625 
Q 48.6875 30.765625 50.640625 29 
Q 54.78125 25.203125 58.5 19.484375 
L 70.953125 0 
L 59.03125 0 
L 49.5625 14.890625 
Q 45.40625 21.34375 42.71875 24.75 
Q 40.046875 28.171875 37.921875 29.53125 
Q 35.796875 30.90625 33.59375 31.453125 
Q 31.984375 31.78125 28.328125 31.78125 
L 17.328125 31.78125 
L 17.328125 0 
z
M 17.328125 39.984375 
L 37.703125 39.984375 
Q 44.1875 39.984375 47.84375 41.328125 
Q 51.515625 42.671875 53.421875 45.625 
Q 55.328125 48.578125 55.328125 52.046875 
Q 55.328125 57.125 51.640625 60.390625 
Q 47.953125 63.671875 39.984375 63.671875 
L 17.328125 63.671875 
z
" id="ArialMT-52"/>
      <path d="M 42.09375 16.703125 
L 51.171875 15.578125 
Q 49.03125 7.625 43.21875 3.21875 
Q 37.40625 -1.171875 28.375 -1.171875 
Q 17 -1.171875 10.328125 5.828125 
Q 3.65625 12.84375 3.65625 25.484375 
Q 3.65625 38.578125 10.390625 45.796875 
Q 17.140625 53.03125 27.875 53.03125 
Q 38.28125 53.03125 44.875 45.953125 
Q 51.46875 38.875 51.46875 26.03125 
Q 51.46875 25.25 51.421875 23.6875 
L 12.75 23.6875 
Q 13.234375 15.140625 17.578125 10.59375 
Q 21.921875 6.0625 28.421875 6.0625 
Q 33.25 6.0625 36.671875 8.59375 
Q 40.09375 11.140625 42.09375 16.703125 
z
M 13.234375 30.90625 
L 42.1875 30.90625 
Q 41.609375 37.453125 38.875 40.71875 
Q 34.671875 45.796875 27.984375 45.796875 
Q 21.921875 45.796875 17.796875 41.75 
Q 13.671875 37.703125 13.234375 30.90625 
z
" id="ArialMT-65"/>
      <path d="M 40.4375 19 
L 49.078125 17.875 
Q 47.65625 8.9375 41.8125 3.875 
Q 35.984375 -1.171875 27.484375 -1.171875 
Q 16.84375 -1.171875 10.375 5.78125 
Q 3.90625 12.75 3.90625 25.734375 
Q 3.90625 34.125 6.6875 40.421875 
Q 9.46875 46.734375 15.15625 49.875 
Q 20.84375 53.03125 27.546875 53.03125 
Q 35.984375 53.03125 41.359375 48.75 
Q 46.734375 44.484375 48.25 36.625 
L 39.703125 35.296875 
Q 38.484375 40.53125 35.375 43.15625 
Q 32.28125 45.796875 27.875 45.796875 
Q 21.234375 45.796875 17.078125 41.03125 
Q 12.9375 36.28125 12.9375 25.984375 
Q 12.9375 15.53125 16.9375 10.796875 
Q 20.953125 6.0625 27.390625 6.0625 
Q 32.5625 6.0625 36.03125 9.234375 
Q 39.5 12.40625 40.4375 19 
z
" id="ArialMT-63"/>
      <path d="M 3.328125 25.921875 
Q 3.328125 40.328125 11.328125 47.265625 
Q 18.015625 53.03125 27.640625 53.03125 
Q 38.328125 53.03125 45.109375 46.015625 
Q 51.90625 39.015625 51.90625 26.65625 
Q 51.90625 16.65625 48.90625 10.90625 
Q 45.90625 5.171875 40.15625 2 
Q 34.421875 -1.171875 27.640625 -1.171875 
Q 16.75 -1.171875 10.03125 5.8125 
Q 3.328125 12.796875 3.328125 25.921875 
z
M 12.359375 25.921875 
Q 12.359375 15.96875 16.703125 11.015625 
Q 21.046875 6.0625 27.640625 6.0625 
Q 34.1875 6.0625 38.53125 11.03125 
Q 42.875 16.015625 42.875 26.21875 
Q 42.875 35.84375 38.5 40.796875 
Q 34.125 45.75 27.640625 45.75 
Q 21.046875 45.75 16.703125 40.8125 
Q 12.359375 35.890625 12.359375 25.921875 
z
" id="ArialMT-6f"/>
      <path d="M 6.5 0 
L 6.5 51.859375 
L 14.40625 51.859375 
L 14.40625 44 
Q 17.4375 49.515625 20 51.265625 
Q 22.5625 53.03125 25.640625 53.03125 
Q 30.078125 53.03125 34.671875 50.203125 
L 31.640625 42.046875 
Q 28.421875 43.953125 25.203125 43.953125 
Q 22.3125 43.953125 20.015625 42.21875 
Q 17.71875 40.484375 16.75 37.40625 
Q 15.28125 32.71875 15.28125 27.15625 
L 15.28125 0 
z
" id="ArialMT-72"/>
      <path d="M 40.234375 0 
L 40.234375 6.546875 
Q 35.296875 -1.171875 25.734375 -1.171875 
Q 19.53125 -1.171875 14.328125 2.25 
Q 9.125 5.671875 6.265625 11.796875 
Q 3.421875 17.921875 3.421875 25.875 
Q 3.421875 33.640625 6 39.96875 
Q 8.59375 46.296875 13.765625 49.65625 
Q 18.953125 53.03125 25.34375 53.03125 
Q 30.03125 53.03125 33.6875 51.046875 
Q 37.359375 49.078125 39.65625 45.90625 
L 39.65625 71.578125 
L 48.390625 71.578125 
L 48.390625 0 
z
M 12.453125 25.875 
Q 12.453125 15.921875 16.640625 10.984375 
Q 20.84375 6.0625 26.5625 6.0625 
Q 32.328125 6.0625 36.34375 10.765625 
Q 40.375 15.484375 40.375 25.140625 
Q 40.375 35.796875 36.265625 40.765625 
Q 32.171875 45.75 26.171875 45.75 
Q 20.3125 45.75 16.375 40.96875 
Q 12.453125 36.1875 12.453125 25.875 
z
" id="ArialMT-64"/>
      <path d="M 0 -1.21875 
L 20.75 72.796875 
L 27.78125 72.796875 
L 7.078125 -1.21875 
z
" id="ArialMT-2f"/>
      <path d="M 6.390625 0 
L 6.390625 71.578125 
L 15.1875 71.578125 
L 15.1875 0 
z
" id="ArialMT-6c"/>
      <path d="M 6.640625 61.46875 
L 6.640625 71.578125 
L 15.4375 71.578125 
L 15.4375 61.46875 
z
M 6.640625 0 
L 6.640625 51.859375 
L 15.4375 51.859375 
L 15.4375 0 
z
" id="ArialMT-69"/>
      <path d="M 21 0 
L 1.265625 51.859375 
L 10.546875 51.859375 
L 21.6875 20.796875 
Q 23.484375 15.765625 25 10.359375 
Q 26.171875 14.453125 28.265625 20.21875 
L 39.796875 51.859375 
L 48.828125 51.859375 
L 29.203125 0 
z
" id="ArialMT-76"/>
     </defs>
     <g style="fill:#262626;" transform="translate(122.901407 249.257561)scale(0.13 -0.13)">
      <use xlink:href="#ArialMT-50"/>
      <use x="66.699219" xlink:href="#ArialMT-4f"/>
      <use x="144.482422" xlink:href="#ArialMT-54"/>
      <use x="205.550781" xlink:href="#ArialMT-20"/>
      <use x="233.333984" xlink:href="#ArialMT-52"/>
      <use x="305.550781" xlink:href="#ArialMT-65"/>
      <use x="361.166016" xlink:href="#ArialMT-63"/>
      <use x="411.166016" xlink:href="#ArialMT-6f"/>
      <use x="466.78125" xlink:href="#ArialMT-72"/>
      <use x="500.082031" xlink:href="#ArialMT-64"/>
      <use x="555.697266" xlink:href="#ArialMT-65"/>
      <use x="611.3125" xlink:href="#ArialMT-64"/>
      <use x="666.927734" xlink:href="#ArialMT-2f"/>
      <use x="694.710938" xlink:href="#ArialMT-44"/>
      <use x="766.927734" xlink:href="#ArialMT-65"/>
      <use x="822.542969" xlink:href="#ArialMT-6c"/>
      <use x="844.759766" xlink:href="#ArialMT-69"/>
      <use x="866.976562" xlink:href="#ArialMT-76"/>
      <use x="916.976562" xlink:href="#ArialMT-65"/>
      <use x="972.591797" xlink:href="#ArialMT-72"/>
      <use x="1005.892578" xlink:href="#ArialMT-65"/>
      <use x="1061.507812" xlink:href="#ArialMT-64"/>
     </g>
    </g>
   </g>
  </g>
 </g>
 <defs>
  <clipPath id="p0feb46cb20">
   <rect height="252.741311" width="375.198593" x="74.801407" y="10.8"/>
  </clipPath>
 </defs>
</svg>
